<?xml version="1.0" standalone="no"?>
<!DOCTYPE svg PUBLIC "-//W3C//DTD SVG 20010904//EN"
 "http://www.w3.org/TR/2001/REC-SVG-20010904/DTD/svg10.dtd">
<svg version="1.0" xmlns="http://www.w3.org/2000/svg"
 width="512.000000pt" height="512.000000pt" viewBox="0 0 512.000000 512.000000"
 preserveAspectRatio="xMidYMid meet">
<metadata>
Created by potrace 1.14, written by Peter Selinger 2001-2017
</metadata>
<g transform="translate(0.000000,512.000000) scale(0.100000,-0.100000)"
fill="#000000" stroke="none">
<path d="M57 5083 c3 -21 12 -47 19 -57 12 -18 14 -18 20 -3 8 22 33 22 50 0
24 -33 52 21 39 75 -5 20 -11 22 -70 22 l-64 0 6 -37z"/>
<path d="M370 5094 c0 -19 4 -25 15 -20 8 3 21 8 28 11 8 3 18 -14 28 -48 20
-62 22 -167 4 -167 -14 0 -40 45 -32 57 11 18 -9 31 -50 34 -24 2 -48 -2 -55
-9 -7 -7 -20 -12 -29 -12 -10 0 -21 -4 -24 -10 -3 -5 -17 -10 -30 -10 -13 0
-28 -7 -33 -16 -10 -19 -5 -53 9 -55 5 -1 14 -2 21 -3 6 0 13 -6 15 -12 3 -8
-14 -11 -50 -10 -63 1 -87 -14 -87 -56 0 -37 40 -78 77 -78 40 0 52 -11 46
-41 -5 -27 -38 -49 -72 -49 -21 0 -45 -47 -39 -76 2 -10 20 -25 41 -33 36 -13
39 -13 65 12 34 32 43 33 67 7 22 -24 61 -18 88 13 10 12 25 22 33 23 34 5 60
-86 32 -114 -7 -7 -22 -12 -34 -12 -12 0 -29 -10 -37 -23 -55 -84 -124 -120
-147 -77 -6 11 -17 20 -25 20 -8 0 -20 -9 -27 -20 -7 -11 -18 -20 -25 -20 -6
0 -15 -9 -18 -21 -5 -15 -13 -19 -28 -15 -12 3 -39 3 -60 -1 -45 -7 -49 -29
-11 -70 l26 -28 -26 -9 -26 -10 0 -175 1 -176 23 29 c22 27 26 28 60 16 30 -9
39 -9 58 4 12 9 34 16 49 16 29 0 92 -23 84 -31 -2 -3 -7 -22 -10 -42 -8 -49
29 -90 78 -85 27 3 33 8 39 38 15 75 15 74 -15 76 -54 5 -71 54 -18 54 32 0
71 -33 71 -59 0 -10 11 -30 25 -43 66 -66 104 -168 75 -203 -10 -12 -7 -15 17
-21 42 -11 53 -27 57 -86 3 -29 5 -53 5 -53 1 0 2 -56 4 -124 l2 -123 -96 7
c-65 4 -103 3 -121 -5 -17 -8 -32 -9 -43 -3 -37 21 -88 -1 -159 -69 -40 -39
-80 -68 -97 -72 -18 -3 -34 -15 -41 -31 -6 -14 -19 -25 -30 -25 -14 0 -18 -8
-18 -40 0 -46 24 -65 45 -37 15 21 34 21 70 3 18 -9 23 -16 14 -21 -7 -5 4
-13 31 -22 30 -10 45 -12 53 -4 13 13 47 15 47 2 0 -5 3 -16 6 -25 4 -10 1
-16 -9 -16 -8 0 -20 -7 -27 -15 -18 -21 -27 -19 -34 9 -5 22 -11 25 -49 22
-23 -2 -50 -7 -61 -11 -11 -5 -21 -3 -26 5 -5 8 -20 15 -34 17 l-26 4 0 -189
c0 -156 3 -192 15 -202 20 -16 20 -69 0 -76 -8 -4 -15 -13 -15 -21 0 -9 6 -13
14 -10 8 3 20 -1 28 -10 11 -14 10 -16 -14 -11 l-28 5 0 -202 0 -201 38 -19
37 -18 -37 -16 -38 -16 0 -922 0 -923 69 0 c77 0 82 3 201 108 39 34 88 73
108 86 20 13 50 36 65 52 26 26 30 27 38 11 14 -25 49 -23 42 3 -4 16 0 20 20
20 28 0 47 24 47 58 0 29 146 151 200 167 14 4 52 20 85 35 33 15 73 30 89 34
32 8 86 42 99 63 4 7 15 13 23 13 14 0 35 39 28 51 -2 4 -21 9 -42 13 -22 3
-45 13 -52 21 -8 10 -25 15 -42 13 -42 -4 -61 34 -39 79 11 26 21 33 43 33 19
0 34 9 50 30 24 33 39 37 58 15 7 -8 16 -13 20 -10 5 3 10 1 12 -4 1 -5 19
-12 40 -16 31 -6 38 -4 48 15 9 16 9 25 1 33 -17 17 -13 42 12 81 16 27 28 35
44 32 13 -2 28 3 34 10 16 20 21 18 48 -21 19 -29 21 -38 11 -50 -8 -9 -8 -15
-2 -15 7 0 8 -10 3 -27 -4 -16 -6 -38 -5 -50 1 -13 2 -30 3 -38 0 -8 5 -15 10
-15 9 0 41 104 41 135 0 11 7 39 16 62 17 43 17 43 41 27 50 -32 31 -6 -31 44
-36 28 -66 48 -69 44 -2 -4 -3 -2 -1 4 3 16 -85 107 -134 138 -83 52 -111 96
-113 177 -1 29 -11 76 -21 104 -10 27 -18 51 -18 53 0 10 -48 -14 -66 -32 -39
-40 -64 -56 -78 -50 -8 3 -17 1 -21 -5 -3 -7 3 -11 15 -11 35 0 90 -51 90 -83
0 -16 9 -42 21 -58 19 -27 19 -30 3 -36 -24 -9 -68 18 -72 44 -5 33 -39 36
-70 4 -15 -15 -34 -31 -42 -34 -8 -4 -25 -14 -37 -23 -21 -15 -24 -14 -52 17
-21 23 -29 39 -25 55 4 14 0 23 -10 27 -25 10 -19 23 18 46 48 30 72 69 57 93
-6 10 -11 27 -11 37 0 11 -5 23 -10 26 -9 6 -40 69 -40 82 0 2 13 -5 30 -17
29 -20 28 -19 -13 42 -23 35 -69 101 -102 146 l-60 84 -40 -7 c-22 -3 -44 -10
-50 -16 -5 -5 -24 -9 -42 -9 -18 0 -42 -5 -52 -12 -25 -15 -47 -5 -53 25 -4
18 3 32 23 52 24 22 28 34 27 68 -1 39 -16 67 -35 67 -10 0 -49 -58 -58 -87
-3 -13 -3 -28 2 -35 12 -20 14 -46 3 -53 -6 -3 -10 0 -10 8 0 8 -7 17 -15 21
-10 3 -15 19 -15 45 0 33 4 40 23 44 21 3 21 4 2 12 -30 13 -36 26 -29 72 6
40 5 42 -22 48 -43 9 -59 20 -62 43 -2 13 5 25 18 32 14 8 20 18 17 31 -9 34
63 42 110 12 15 -10 34 -13 53 -10 23 5 28 3 23 -8 -3 -8 -1 -15 5 -15 5 0 20
25 32 55 13 31 25 54 27 51 2 -2 23 16 46 41 42 45 78 69 129 84 30 8 223 -12
236 -25 4 -4 10 -60 13 -124 3 -70 16 -164 32 -234 46 -203 67 -214 67 -38 0
98 23 409 36 491 4 30 2 37 -18 47 -20 9 -14 11 40 11 53 1 62 -2 62 -16 1
-65 24 -224 46 -313 71 -288 219 -382 604 -384 127 -1 143 1 270 37 239 67
294 101 353 219 21 40 46 103 57 141 11 37 29 97 40 135 11 37 18 79 14 94 -8
41 6 116 28 141 11 12 17 16 13 10 -9 -18 -2 -16 23 5 14 12 32 17 55 14 27
-3 39 -11 55 -40 26 -47 45 -142 36 -177 -5 -22 -4 -26 6 -20 10 6 12 2 7 -15
-4 -14 3 -42 19 -73 13 -28 24 -56 24 -63 0 -6 7 -17 15 -24 8 -7 18 -30 21
-51 7 -43 79 -135 139 -177 51 -37 89 -113 82 -166 l-6 -41 16 29 c13 26 14
72 2 116 -5 18 -4 18 199 -4 212 -22 342 -7 494 58 47 20 97 68 136 129 l29
46 12 -37 c7 -21 18 -92 25 -157 12 -107 14 -117 24 -92 7 16 12 39 12 52 0
13 6 30 13 37 25 25 36 82 38 203 1 66 7 127 12 136 8 13 2 24 -27 50 -38 33
-38 33 -32 91 7 61 28 123 38 112 9 -8 28 63 28 103 0 39 -9 65 -21 57 -5 -3
-9 2 -9 10 0 8 -8 21 -18 28 -10 7 -27 29 -39 48 -19 32 -21 49 -20 185 2 126
4 150 17 150 12 0 15 -14 15 -70 0 -82 20 -124 72 -152 18 -10 33 -21 33 -25
0 -4 13 -26 29 -50 42 -63 45 -81 21 -130 -32 -64 -37 -237 -8 -316 38 -108
30 -245 -22 -372 -31 -78 -36 -91 -51 -130 -7 -19 -18 -42 -26 -51 -7 -8 -13
-23 -13 -32 0 -8 -6 -22 -13 -29 -13 -14 -26 -44 -47 -115 -7 -24 -17 -43 -21
-43 -13 0 -56 -84 -93 -185 -40 -106 -74 -175 -88 -175 -4 0 -8 -5 -8 -11 0
-16 -59 -95 -112 -151 -27 -28 -48 -52 -48 -55 0 -8 -63 -87 -77 -96 -7 -4
-42 -38 -78 -74 -36 -37 -65 -62 -65 -55 0 6 9 17 19 24 10 6 17 17 14 23 -2
7 7 20 21 29 15 9 26 22 25 29 0 9 -2 9 -6 0 -2 -7 -14 -13 -25 -13 -28 0
-128 -99 -128 -127 0 -13 -4 -23 -10 -23 -20 0 -151 -139 -144 -152 4 -7 4
-10 0 -6 -5 4 -26 -14 -49 -40 -22 -26 -54 -57 -70 -69 -17 -13 -33 -26 -36
-30 -6 -8 -20 -16 -96 -59 -106 -60 -343 -90 -473 -60 -94 21 -154 42 -227 78
-94 46 -282 175 -376 257 -91 80 -173 151 -227 196 -17 15 -32 22 -32 17 0 -5
15 -21 33 -35 52 -41 107 -96 105 -106 -2 -5 8 -18 20 -29 13 -12 21 -26 18
-31 -4 -6 3 -21 14 -33 12 -13 27 -30 35 -39 8 -9 15 -20 15 -26 0 -5 10 -19
23 -30 12 -11 33 -35 46 -52 13 -17 28 -31 35 -31 6 0 23 -13 38 -28 15 -15
49 -39 77 -52 28 -14 51 -28 51 -31 0 -4 27 -12 60 -20 32 -7 57 -15 54 -18
-6 -6 78 -27 161 -41 100 -16 170 -32 179 -41 13 -12 56 -12 56 1 0 6 9 10 21
10 11 0 29 5 40 10 14 8 19 7 19 -3 0 -7 11 -13 27 -12 19 0 31 -7 40 -25 11
-21 13 -22 13 -6 0 20 0 20 18 0 10 -10 21 -26 24 -36 4 -9 19 -22 35 -30 41
-19 52 -94 25 -172 -11 -31 -23 -57 -28 -56 -5 0 -10 -9 -12 -20 -3 -20 -2
-21 367 -20 204 1 371 5 371 9 0 4 -19 33 -42 63 -46 59 -81 117 -84 133 -2
15 -17 49 -24 55 -7 6 -40 58 -40 63 0 9 44 -1 48 -11 2 -7 10 -12 18 -12 9 0
14 -11 14 -30 0 -16 5 -30 10 -30 6 0 10 -7 10 -15 0 -7 7 -18 16 -23 8 -5 21
-20 28 -33 15 -31 42 -32 38 -2 -3 22 -2 22 33 7 41 -17 59 -13 96 19 43 39
43 53 -4 105 -72 80 -77 86 -77 93 0 4 -8 9 -17 13 -10 3 -40 19 -66 36 -27
17 -69 35 -95 41 -25 5 -52 15 -59 21 -14 11 -134 28 -128 17 3 -3 17 -9 33
-12 15 -3 39 -15 53 -26 l24 -20 -40 5 c-82 12 -105 23 -105 53 0 28 0 28 63
26 72 -2 247 -38 285 -60 90 -49 271 -85 437 -87 66 0 96 -7 173 -36 103 -39
126 -61 127 -121 l0 -36 56 3 c56 3 57 2 96 -41 21 -25 61 -55 88 -68 27 -13
66 -40 87 -61 l38 -38 255 0 255 0 -1 2288 c0 1904 -3 2280 -13 2245 -8 -23
-20 -48 -27 -55 -25 -25 -77 -40 -126 -37 -26 1 -56 -1 -66 -6 -25 -11 -50
-63 -43 -90 9 -33 -1 -50 -42 -78 -28 -18 -41 -37 -55 -78 -15 -42 -26 -58
-48 -68 -29 -13 -38 -34 -19 -46 23 -14 8 -35 -32 -45 -24 -6 -58 -16 -77 -22
-32 -10 -36 -8 -67 26 -18 20 -42 36 -54 36 -12 0 -19 4 -15 9 3 6 -6 6 -25 1
-17 -5 -37 -7 -44 -4 -7 3 -31 -12 -52 -33 -22 -21 -51 -44 -66 -50 -17 -8
-28 -20 -28 -32 0 -13 -8 -21 -22 -23 -13 -2 -24 -9 -24 -15 -1 -7 -2 -20 -3
-28 0 -8 -7 -15 -15 -15 -8 0 -18 -9 -21 -20 -9 -27 -24 -25 -89 13 -66 38
-71 60 -24 102 26 23 39 28 79 26 54 -2 89 15 89 41 0 22 -30 38 -73 38 -32 0
-36 4 -61 60 -15 33 -34 60 -42 60 -8 0 -14 9 -14 21 0 11 -13 50 -30 85 -16
36 -32 76 -34 89 -14 76 -69 146 -141 181 -27 13 -45 24 -40 24 18 0 -89 51
-124 58 -44 10 -83 70 -63 102 6 11 12 29 12 39 0 11 4 22 9 25 5 3 8 47 7 97
-2 76 1 95 17 115 16 21 20 22 33 10 8 -8 14 -21 14 -29 0 -7 8 -22 19 -33 14
-15 16 -24 8 -41 -12 -28 11 -58 49 -66 36 -7 51 25 31 67 -8 17 -20 43 -26
58 -7 18 -16 26 -25 22 -20 -8 -29 11 -11 26 8 7 15 9 15 5 0 -5 9 0 20 10 11
10 20 26 20 37 0 17 -48 18 -1485 18 l-1485 0 5 -23 c8 -32 -28 -62 -93 -77
-41 -9 -56 -9 -67 0 -8 7 -12 17 -9 22 3 5 3 25 0 44 l-7 34 -124 0 -125 0 0
-26z m3118 -86 c7 -7 12 -20 12 -30 0 -13 8 -18 25 -18 19 0 25 -5 25 -21 l0
-20 -30 21 c-16 12 -34 19 -39 16 -5 -3 -11 1 -15 9 -3 8 -12 15 -21 15 -15 0
-21 21 -8 33 10 11 38 8 51 -5z m-3118 -197 c0 -11 -7 -26 -15 -35 -9 -8 -15
-19 -14 -23 5 -31 -3 -38 -42 -38 -35 0 -43 4 -50 24 -14 35 10 76 43 76 15 1
30 4 34 8 15 15 44 7 44 -12z m399 -193 c4 -13 9 -44 10 -70 1 -37 -4 -52 -20
-67 -12 -11 -25 -18 -29 -16 -8 5 -14 -17 -32 -125 -6 -36 -17 -72 -24 -81 -8
-8 -14 -21 -14 -27 0 -7 -6 -12 -14 -12 -16 0 -32 -37 -21 -48 3 -4 10 0 15 8
6 8 10 10 10 4 0 -6 -7 -17 -15 -24 -8 -7 -15 -18 -15 -25 0 -7 -14 -24 -32
-38 -22 -19 -32 -36 -33 -59 -5 -80 -29 -149 -57 -167 -15 -9 -18 -8 -18 9 0
11 -6 20 -14 20 -21 0 -33 48 -30 118 2 43 -1 62 -9 63 -7 0 -36 1 -65 2 -39
1 -53 6 -58 19 -10 33 -64 35 -64 3 0 -23 -32 -55 -55 -55 -12 0 -32 11 -44
24 -13 14 -38 26 -55 28 -38 4 -43 31 -6 36 14 2 42 17 63 34 34 26 51 34 80
37 4 1 7 10 7 21 0 32 20 23 36 -15 8 -19 19 -35 25 -35 13 0 70 29 89 45 8 7
35 15 60 17 114 8 173 178 62 178 -18 0 -32 18 -32 42 0 6 18 7 49 3 58 -8
104 14 99 48 -2 11 3 22 10 24 6 3 12 -3 12 -12 0 -11 7 -15 23 -13 19 3 22 9
22 46 0 36 4 45 30 61 39 25 44 25 54 -1z m2801 -262 c0 -3 -4 -8 -10 -11 -5
-3 -10 -1 -10 4 0 6 5 11 10 11 6 0 10 -2 10 -4z m1390 -157 c0 -25 -33 -22
-38 4 -2 12 3 17 17 17 15 0 21 -6 21 -21z m-2550 -103 c96 -24 151 -29 315
-28 155 2 201 -4 362 -40 34 -8 80 -26 102 -41 22 -15 48 -27 56 -27 23 0 67
-25 94 -55 13 -14 37 -29 53 -32 15 -3 28 -9 28 -14 0 -5 6 -9 14 -9 16 0 29
-27 20 -41 -3 -5 -1 -9 4 -9 9 0 67 -92 85 -134 18 -44 39 -92 49 -110 5 -10
11 -32 14 -48 2 -17 8 -36 15 -44 6 -7 8 -17 6 -21 -3 -5 -1 -28 5 -53 5 -25
9 -65 9 -90 -1 -30 2 -40 8 -31 6 10 12 -2 19 -40 21 -112 22 -149 2 -149 -5
0 -29 18 -54 39 -71 61 -137 82 -321 98 -214 20 -393 21 -425 4 -75 -40 -110
-103 -92 -166 7 -25 13 -30 38 -28 188 16 522 25 582 17 41 -6 55 -18 30 -27
-7 -2 -6 -3 3 -2 9 1 23 -1 30 -6 8 -4 -44 -8 -116 -7 -159 0 -271 -18 -447
-72 -235 -73 -380 -76 -583 -15 -108 33 -207 53 -345 70 -263 33 -812 -41
-901 -121 -19 -17 -28 -7 -10 12 24 23 82 242 91 343 16 169 30 259 52 330 28
90 142 314 171 338 16 13 81 30 188 52 150 29 360 91 384 112 5 5 19 9 30 9
12 0 42 7 67 15 96 33 280 44 368 21z m-2215 -77 c8 -12 -14 -69 -26 -69 -5 0
-9 -6 -9 -12 0 -8 -13 -13 -31 -14 -29 -1 -30 0 -27 35 2 20 8 35 14 34 6 -1
20 6 30 17 22 21 40 25 49 9z m4336 -139 c27 -15 23 -32 -12 -52 -51 -30 -92
-18 -81 24 8 32 57 47 93 28z m-83 -115 c11 -11 -26 -60 -47 -63 -36 -5 -44
11 -24 47 15 26 22 31 43 25 14 -3 27 -7 28 -9z m-457 -138 c-8 -8 -11 -7 -11
4 0 20 13 34 18 19 3 -7 -1 -17 -7 -23z m35 -147 c17 0 24 -6 24 -20 0 -18
-11 -25 -33 -21 -11 2 -47 -79 -47 -107 0 -13 -4 -20 -10 -17 -5 3 -10 42 -10
86 0 73 2 80 23 88 12 5 23 5 25 0 2 -5 15 -9 28 -9z m488 -316 c7 -19 -23
-31 -34 -14 -5 7 -6 19 -3 26 6 16 29 8 37 -12z m-4140 -60 c8 -22 8 -24 -8
-24 -18 0 -29 16 -21 30 9 15 22 12 29 -6z m4077 -41 c18 -19 16 -83 -3 -83
-5 0 -8 7 -6 16 5 26 -16 27 -27 2 -14 -33 -28 -26 -41 18 -9 32 -9 42 3 56
17 20 50 16 74 -9z m-3922 -17 c21 -25 -13 -82 -66 -109 -39 -21 -62 -21 -87
-2 -19 14 -19 15 8 40 15 14 29 38 31 53 2 15 4 28 4 30 3 9 101 -1 110 -12z
m2944 -117 c40 -8 58 -17 62 -30 4 -11 12 -19 19 -19 7 0 31 -19 54 -41 46
-47 74 -118 76 -194 l1 -50 41 -3 c41 -3 41 -4 48 -49 9 -69 7 -175 -3 -168
-13 7 -19 -24 -10 -56 4 -14 1 -42 -6 -62 -7 -20 -9 -37 -5 -37 19 0 52 58 75
132 21 68 25 98 25 211 -1 157 -11 209 -52 260 -36 46 -29 61 11 23 53 -51 74
-124 79 -278 5 -166 -12 -263 -59 -328 -57 -79 -234 -138 -439 -147 -223 -10
-358 23 -434 107 -76 84 -157 310 -155 430 2 56 23 124 31 99 3 -9 11 -4 23
16 20 32 59 72 91 93 18 12 18 13 -5 8 -15 -3 -20 -1 -14 5 5 5 19 11 30 14
12 2 34 11 48 21 66 43 342 68 468 43z m-1478 -10 c190 -25 309 -73 379 -150
51 -57 62 -105 47 -220 -6 -41 -12 -96 -15 -124 -6 -57 -77 -228 -109 -263
-79 -86 -300 -146 -532 -146 -277 0 -434 67 -496 212 -52 120 -79 322 -60 446
11 78 62 192 89 200 15 4 128 22 287 45 87 13 317 13 410 0z m-1256 -93 c-1
-28 -3 -43 -6 -33 -2 9 -9 15 -14 12 -5 -4 -9 16 -9 46 0 45 2 50 15 39 10 -8
15 -29 14 -64z m-289 -106 c0 -5 11 -10 24 -10 25 0 38 -12 43 -40 1 -8 5 -26
8 -40 4 -14 1 -38 -5 -54 -10 -26 -13 -28 -51 -23 -64 8 -93 66 -64 125 9 17
14 36 10 42 -3 5 3 10 14 10 12 0 21 -4 21 -10z m513 -75 c-3 -9 -8 -14 -10
-11 -3 3 -2 9 2 15 9 16 15 13 8 -4z m-910 -479 c4 -10 1 -13 -8 -9 -8 3 -12
9 -9 14 7 12 11 11 17 -5z m105 -59 c12 -15 5 -58 -12 -69 -19 -13 -64 -9 -69
6 -6 16 40 76 58 76 7 0 17 -6 23 -13z m4118 -65 c-9 -9 -37 8 -31 18 5 8 11
7 21 -1 8 -6 12 -14 10 -17z m-3716 -321 c5 -9 10 -10 14 -2 9 15 31 14 48 -1
7 -7 19 -13 26 -14 33 -3 35 -4 23 -18 -9 -11 -8 -17 3 -29 14 -13 12 -15 -10
-20 -19 -3 -24 0 -23 12 3 30 -1 42 -11 36 -5 -3 -7 -12 -4 -20 9 -22 -24 -30
-44 -12 -9 8 -35 18 -57 22 -22 4 -50 17 -63 29 l-24 21 23 5 c38 9 90 4 99
-9z m172 -83 c-9 -9 -12 -7 -12 12 0 19 3 21 12 12 9 -9 9 -15 0 -24z m3798
-55 c0 -28 -16 -47 -34 -40 -13 5 -14 11 -4 32 13 29 38 34 38 8z m-3850 -204
c0 -10 4 -19 9 -19 13 0 1 -72 -15 -87 -18 -18 -61 -16 -68 3 -10 26 -7 75 7
89 6 8 18 21 25 29 16 19 42 10 42 -15z m2468 -839 c0 -40 -1 -42 -8 -15 -4
17 -8 50 -8 75 0 40 1 42 8 15 4 -16 8 -50 8 -75z m-2628 -94 c0 -3 -4 -8 -10
-11 -5 -3 -10 -1 -10 4 0 6 5 11 10 11 6 0 10 -2 10 -4z m2798 -94 c3 -9 -3
-13 -19 -10 -12 1 -24 9 -27 16 -3 9 3 13 19 10 12 -1 24 -9 27 -16z m97 -22
c3 -5 1 -10 -4 -10 -6 0 -11 5 -11 10 0 6 2 10 4 10 3 0 8 -4 11 -10z m-62
-157 c15 -20 27 -40 27 -44 0 -13 -40 14 -40 26 0 5 -9 21 -20 35 -11 14 -19
32 -19 40 0 11 3 11 12 -4 7 -10 24 -34 40 -53z"/>
<path d="M2020 3244 c-41 -8 -95 -17 -120 -19 -25 -3 -85 -10 -135 -16 -177
-20 -272 -47 -355 -101 -47 -31 -80 -79 -80 -119 0 -16 5 -18 28 -14 15 4 37
8 50 11 13 2 20 9 17 14 -8 12 29 34 95 56 49 17 92 19 395 19 296 0 345 -2
381 -17 41 -17 41 -17 73 10 31 26 32 29 22 71 -24 106 -159 144 -371 105z"/>
<path d="M3165 2780 c-93 -27 -127 -44 -167 -86 -35 -38 -78 -105 -78 -123 0
-5 37 -9 83 -8 45 0 69 2 52 5 -16 2 -40 13 -52 24 -20 19 -21 23 -8 47 13 27
79 70 90 60 3 -4 6 -33 8 -65 1 -32 6 -62 11 -65 5 -4 22 -3 39 2 29 8 346 24
460 22 31 0 57 3 57 7 0 5 -15 20 -32 34 -18 15 -38 30 -44 35 -6 5 -21 21
-32 36 -15 19 -47 36 -108 56 -107 36 -198 43 -279 19z m45 -80 c0 -5 -7 -10
-15 -10 -8 0 -15 5 -15 10 0 6 7 10 15 10 8 0 15 -4 15 -10z m246 -36 l35 -17
-27 -13 c-47 -25 -68 -16 -57 24 6 26 6 26 49 6z"/>
<path d="M2866 2745 c-3 -9 -6 -22 -5 -28 0 -7 5 -1 10 12 5 13 8 26 5 28 -2
2 -6 -3 -10 -12z"/>
<path d="M1300 2850 c-8 -5 -12 -12 -9 -15 4 -3 12 1 19 10 14 17 11 19 -10 5z"/>
<path d="M1889 2816 c-2 -3 -27 -7 -54 -9 -28 -3 -66 -14 -85 -25 -19 -11 -75
-28 -125 -38 -49 -9 -97 -20 -105 -25 -8 -5 -24 -13 -36 -18 -31 -14 -74 -69
-74 -96 0 -13 -5 -27 -10 -30 -19 -12 9 -33 52 -40 22 -4 70 -4 107 1 l66 8
-75 7 c-41 5 -84 10 -95 13 -11 2 -24 5 -29 5 -22 2 55 57 122 88 102 46 181
47 167 2 -4 -11 -2 -19 4 -19 6 0 11 -18 11 -40 0 -37 2 -40 28 -42 15 -1 41
-3 57 -4 99 -9 337 -16 359 -10 32 8 34 33 6 95 -11 24 -20 54 -20 67 0 13 -5
24 -11 24 -5 0 -7 5 -3 11 4 7 1 10 -7 7 -7 -2 -25 6 -39 19 -22 20 -40 27
-62 24 -4 0 -23 6 -42 14 -33 14 -97 20 -107 11z m209 -189 c4 2 7 -7 7 -20 1
-18 6 -21 28 -19 15 1 27 -2 27 -8 0 -6 -27 -10 -66 -10 -52 0 -64 3 -56 13 5
6 13 27 17 46 7 33 8 34 22 15 7 -10 17 -18 21 -17z"/>
<path d="M3848 5099 c-10 -10 -18 -21 -18 -24 0 -3 17 -23 39 -46 38 -40 39
-41 64 -25 17 12 27 14 32 6 11 -18 22 -3 29 39 10 64 3 71 -68 70 -47 0 -65
-5 -78 -20z"/>
<path d="M4086 5105 c-3 -8 -17 -20 -31 -27 -14 -6 -25 -16 -25 -21 0 -6 -8
-19 -17 -29 -14 -16 -14 -18 -1 -13 9 4 18 0 21 -10 4 -10 15 -14 29 -11 13 3
35 7 50 10 15 3 33 12 40 19 41 37 89 39 75 3 -3 -8 -2 -18 3 -21 6 -4 10 3
10 15 0 12 7 28 15 37 21 21 8 35 -25 28 -23 -5 -32 -2 -42 14 -16 26 -92 30
-102 6z"/>
<path d="M0 4850 c0 -19 3 -21 12 -12 9 9 9 15 0 24 -9 9 -12 7 -12 -12z"/>
<path d="M0 4605 c0 -47 4 -85 8 -85 5 0 17 9 27 20 10 11 13 20 7 20 -22 0
-12 20 13 30 30 11 32 26 7 33 -11 2 -22 17 -25 36 -4 18 -13 31 -22 31 -12 0
-15 -15 -15 -85z"/>
<path d="M5105 4621 c-3 -5 -1 -12 5 -16 5 -3 10 1 10 9 0 18 -6 21 -15 7z"/>
<path d="M4805 4574 c-11 -12 -13 -20 -6 -27 15 -15 61 11 54 29 -7 19 -28 18
-48 -2z"/>
<path d="M0 4370 c0 -36 4 -50 14 -50 8 0 16 7 20 15 3 8 12 15 20 15 32 0 66
19 60 35 -3 8 -12 15 -20 15 -8 0 -14 5 -14 10 0 6 -18 10 -40 10 l-40 0 0
-50z"/>
<path d="M224 4389 c-3 -6 -1 -16 5 -22 8 -8 11 -5 11 11 0 24 -5 28 -16 11z"/>
<path d="M4408 4193 c7 -3 16 -2 19 1 4 3 -2 6 -13 5 -11 0 -14 -3 -6 -6z"/>
<path d="M4578 4162 c-22 -4 -24 -32 -3 -32 9 0 18 7 22 15 7 19 3 22 -19 17z"/>
<path d="M4479 4124 c-17 -20 -8 -25 20 -10 19 10 20 14 8 19 -9 3 -21 -1 -28
-9z"/>
<path d="M100 3704 c-14 -7 -20 -13 -13 -14 6 0 -2 -13 -18 -29 -34 -35 -38
-77 -10 -112 16 -19 16 -25 5 -37 -8 -7 -14 -17 -14 -22 0 -13 91 -110 103
-110 6 0 21 -10 34 -22 18 -17 26 -19 35 -10 13 13 78 17 78 4 0 -17 61 -73
76 -70 22 4 46 76 39 119 -4 30 1 44 27 80 17 24 38 49 47 55 13 10 12 13 -5
22 -10 5 -35 12 -54 13 -30 4 -36 1 -44 -24 -7 -20 -7 -34 2 -47 17 -28 15
-36 -15 -65 -39 -36 -85 -34 -120 5 -14 17 -33 30 -41 30 -13 0 -60 23 -90 44
-10 7 -10 12 0 23 13 15 20 170 9 178 -4 2 -17 -3 -31 -11z"/>
<path d="M0 3187 c0 -29 3 -35 15 -31 11 4 13 13 9 28 -12 39 -24 41 -24 3z"/>
<path d="M431 2187 c-6 -15 -16 -27 -23 -27 -7 -1 -2 -7 12 -14 14 -8 28 -12
32 -10 11 7 10 46 -2 64 -7 11 -11 9 -19 -13z"/>
<path d="M2812 1907 c-37 -14 -102 -63 -102 -78 0 -6 5 -7 11 -3 6 3 59 6 117
5 119 -1 137 3 146 25 4 11 2 15 -8 11 -8 -3 -35 8 -60 24 -51 32 -56 33 -104
16z"/>
<path d="M2368 1883 c6 -2 18 -2 25 0 6 3 1 5 -13 5 -14 0 -19 -2 -12 -5z"/>
<path d="M3020 1611 c-66 -5 -99 -13 -150 -37 -36 -17 -87 -39 -115 -50 l-49
-18 34 -8 c27 -5 41 -3 62 12 17 13 43 20 71 20 23 0 47 4 53 9 12 11 113 20
119 10 3 -4 14 -5 25 -2 21 6 26 -6 11 -22 -5 -6 -14 -27 -21 -48 -11 -36 -41
-63 -54 -50 -3 4 -16 -4 -27 -16 -16 -17 -28 -21 -49 -16 -23 5 -32 2 -45 -18
-12 -18 -29 -26 -68 -32 -48 -7 -49 -9 -22 -15 17 -3 38 -2 49 3 10 5 35 6 55
2 63 -11 89 -8 118 11 15 10 37 21 48 24 13 4 22 17 25 38 3 18 10 33 15 34
30 5 101 144 83 165 -11 13 -23 14 -168 4z"/>
<path d="M1910 1585 c0 -18 85 -120 133 -160 90 -74 145 -113 177 -124 27 -9
32 -9 22 1 -17 17 -15 45 5 52 14 6 12 10 -14 26 -17 10 -34 23 -37 29 -4 6
-20 8 -35 5 -39 -8 -66 30 -58 81 4 27 2 34 -11 34 -54 -1 -100 13 -139 40
-30 21 -43 26 -43 16z"/>
<path d="M2173 1513 c9 -2 23 -2 30 0 6 3 -1 5 -18 5 -16 0 -22 -2 -12 -5z"/>
<path d="M2418 1493 c6 -2 18 -2 25 0 6 3 1 5 -13 5 -14 0 -19 -2 -12 -5z"/>
<path d="M2610 1479 c0 -5 5 -7 10 -4 6 3 10 8 10 11 0 2 -4 4 -10 4 -5 0 -10
-5 -10 -11z"/>
<path d="M2280 1370 c0 -5 5 -10 11 -10 5 0 7 5 4 10 -3 6 -8 10 -11 10 -2 0
-4 -4 -4 -10z"/>
<path d="M3053 1323 c-7 -16 -33 -59 -58 -98 -55 -85 -58 -116 -7 -59 58 64
93 119 95 149 3 37 -15 42 -30 8z"/>
<path d="M2915 1110 c-3 -5 -1 -10 4 -10 6 0 11 5 11 10 0 6 -2 10 -4 10 -3 0
-8 -4 -11 -10z"/>
<path d="M1275 719 c-22 -11 -44 -27 -49 -37 -5 -9 -27 -32 -48 -51 -47 -43
-49 -69 -8 -168 16 -40 32 -90 35 -110 6 -33 30 -123 82 -300 9 -31 22 -53 30
-53 11 0 11 4 3 21 -6 11 -18 44 -25 72 -7 29 -16 61 -20 72 -5 15 -3 14 8 -4
8 -13 16 -20 19 -15 3 5 3 3 1 -4 -4 -19 8 -62 17 -62 13 0 -1 70 -24 120
l-21 45 -3 -30 c-4 -28 -5 -26 -18 20 -8 28 -18 73 -24 100 -6 28 -15 71 -21
96 -9 41 -7 53 12 93 12 25 34 56 50 67 28 20 29 20 29 1 0 -15 5 -18 25 -14
26 5 32 16 15 27 -6 4 -7 13 -3 20 12 20 3 103 -11 108 -6 3 -30 -4 -51 -14z"/>
<path d="M719 315 c-25 -14 -47 -60 -34 -73 3 -3 33 -1 68 5 65 11 86 8 68
-10 -13 -13 -15 -77 -2 -77 5 0 15 17 22 38 6 20 17 40 23 44 7 4 4 9 -7 14
-9 3 -17 14 -17 25 0 42 -70 62 -121 34z"/>
<path d="M3667 306 c10 -13 21 -22 25 -20 11 7 -15 44 -30 44 -9 0 -8 -7 5
-24z"/>
<path d="M3780 326 c0 -36 120 -193 159 -208 14 -5 39 -12 55 -15 l28 -6 -16
30 c-8 17 -13 33 -10 36 11 11 -74 82 -101 85 -31 4 -65 30 -59 47 3 7 -3 15
-13 19 -10 3 -24 9 -30 12 -7 3 -13 3 -13 0z"/>
<path d="M861 204 c0 -11 3 -14 6 -6 3 7 2 16 -1 19 -3 4 -6 -2 -5 -13z"/>
<path d="M856 55 c-15 -11 -23 -12 -33 -3 -16 13 -33 -4 -33 -34 0 -16 10 -18
76 -18 73 0 75 1 69 23 -4 12 -10 25 -14 28 -15 15 -47 17 -65 4z"/>
<path d="M3797 41 c-5 -21 9 -41 29 -41 9 0 10 7 1 30 -13 35 -23 38 -30 11z"/>
<path d="M720 15 c-10 -12 -10 -15 4 -15 9 0 16 7 16 15 0 8 -2 15 -4 15 -2 0
-9 -7 -16 -15z"/>
<path d="M548 3 c6 -2 18 -2 25 0 6 3 1 5 -13 5 -14 0 -19 -2 -12 -5z"/>
</g>
</svg>
